# Blender v3.2.1 OBJ File: ''
# www.blender.org
mtllib goog.mtl
o Cube
v 1.500000 3.753247 -2.000000
v -1.000000 1.766935 1.630061
v 1.500000 -0.246753 -2.000000
v 1.500000 3.753247 2.000000
v -1.000000 1.766935 -1.630061
v 1.500000 -0.246753 2.000000
v 1.000000 1.766935 1.630061
v -1.500000 3.753247 -2.000000
v -1.500000 -0.246753 -2.000000
v -1.500000 3.753247 2.000000
v 1.000000 1.766935 -1.630061
v -1.500000 -0.246753 2.000000
v -1.500000 0.145027 1.700000
v -1.500000 1.145027 1.700000
v -1.500000 1.145027 -1.700000
v -1.500000 0.145027 -1.700000
v 1.500000 1.145027 -1.700000
v 1.500000 0.145027 -1.700000
v 1.500000 0.145027 1.700000
v 1.500000 1.145027 1.700000
v -1.147672 -0.246753 -1.564135
v 1.147672 -0.246753 -1.564135
v -1.147672 -0.246753 1.564135
v 1.147672 -0.246753 1.564135
v 1.165935 1.060360 2.000000
v -1.165935 0.060360 2.000000
v -1.165935 1.060360 2.000000
v 1.165935 0.060360 2.000000
v -1.165935 1.060360 -2.000000
v -1.165935 0.060360 -2.000000
v 1.165935 0.060360 -2.000000
v 1.165935 1.060360 -2.000000
v -1.165935 0.145027 -1.700000
v 1.165935 0.145027 -1.700000
v -1.165935 1.060360 -1.700000
v 1.165935 1.060360 -1.700000
v -1.165935 0.145027 1.700000
v 1.165935 0.145027 1.700000
v -1.165935 1.060360 1.700000
v 1.165935 1.060360 1.700000
v -1.165935 0.145027 1.571178
v 1.165935 0.145027 1.571178
v -1.147672 0.060360 1.564135
v -1.147672 0.060360 -1.564135
v 1.147672 0.060360 -1.564135
v 1.147672 0.060360 1.564135
v 1.000000 3.753247 -1.630061
v -1.000000 3.753247 -1.630061
v -1.000000 3.753247 1.630061
v 1.000000 3.753247 1.630061
vt 0.833333 0.726879
vt 0.875000 0.750000
vt 0.625000 0.750000
vt 0.666667 0.726879
vt 0.625000 0.500000
vt 0.875000 0.500000
vt 0.833333 0.523121
vt 0.666667 0.523121
vt 0.456695 0.777839
vt 0.394195 0.777839
vt 0.375000 0.750000
vt 0.625000 1.000000
vt 0.375000 1.000000
vt 0.394195 0.972161
vt 0.456695 0.972161
vt 0.461986 0.018750
vt 0.399486 0.018750
vt 0.375000 0.000000
vt 0.625000 0.000000
vt 0.625000 0.250000
vt 0.375000 0.250000
vt 0.399486 0.231250
vt 0.461986 0.231250
vt 0.154361 0.527242
vt 0.154361 0.722758
vt 0.125000 0.750000
vt 0.125000 0.500000
vt 0.375000 0.500000
vt 0.345639 0.722758
vt 0.345639 0.527242
vt 0.461986 0.518750
vt 0.399486 0.518750
vt 0.399486 0.731250
vt 0.461986 0.731250
vt 0.394195 0.277839
vt 0.394195 0.472161
vt 0.456695 0.472161
vt 0.456695 0.277839
vt 0.000000 0.000000
vt 0.000000 0.000000
vt 0.000000 0.000000
vt 0.000000 0.000000
vt 0.000000 0.000000
vt 0.000000 0.000000
vt 0.000000 0.000000
vt 0.000000 0.000000
vt 0.000000 0.000000
vt 0.000000 0.000000
vt 0.000000 0.000000
vt 0.000000 0.000000
vt 0.000000 0.000000
vt 0.000000 0.000000
vt 0.000000 0.000000
vt 0.000000 0.000000
vt 0.000000 0.000000
vt 0.000000 0.000000
vt 0.000000 0.000000
vt 0.000000 0.000000
vt 0.000000 0.000000
vt 0.000000 0.000000
vt 0.000000 0.000000
vt 0.000000 0.000000
vt 0.000000 0.000000
vt 0.000000 0.000000
vt 0.000000 0.000000
vt 0.000000 0.000000
vt 0.000000 0.000000
vt 0.000000 0.000000
vt 0.000000 0.000000
vt 0.000000 0.000000
vt 0.000000 0.000000
vt 0.000000 0.000000
vt 0.000000 0.000000
vt 0.000000 0.000000
vt 0.000000 0.000000
vt 0.000000 0.000000
vt 0.000000 0.000000
vt 0.000000 0.000000
vt 0.000000 0.000000
vt 0.000000 0.000000
vn 0.0000 1.0000 -0.0000
vn 0.0000 0.0000 1.0000
vn -1.0000 0.0000 0.0000
vn 0.0000 -1.0000 -0.0000
vn 1.0000 0.0000 0.0000
vn 0.0000 0.0000 -1.0000
usemtl Material
s off
f 49/1/1 10/2/1 4/3/1 50/4/1
f 50/4/1 4/3/1 1/5/1 8/6/1 10/2/1 49/1/1 48/7/1 47/8/1
f 25/9/2 28/10/2 6/11/2 4/3/2 10/12/2 12/13/2 26/14/2 27/15/2
f 26/14/2 12/13/2 6/11/2 28/10/2
f 14/16/3 13/17/3 12/18/3 10/19/3 8/20/3 9/21/3 16/22/3 15/23/3
f 9/21/3 12/18/3 13/17/3 16/22/3
f 21/24/4 23/25/4 12/26/4 9/27/4 3/28/4 6/11/4 24/29/4 22/30/4
f 6/11/4 12/26/4 23/25/4 24/29/4
f 17/31/5 18/32/5 3/28/5 1/5/5 4/3/5 6/11/5 19/33/5 20/34/5
f 19/33/5 6/11/5 3/28/5 18/32/5
f 30/35/6 9/21/6 8/20/6 1/5/6 3/28/6 31/36/6 32/37/6 29/38/6
f 3/28/6 9/21/6 30/35/6 31/36/6
usemtl (null)
f 34/39/2 18/40/2 17/41/2 15/42/2 16/43/2 33/44/2 35/45/2 36/46/2
f 39/47/6 37/48/6 13/49/6 14/50/6 20/51/6 19/52/6 38/53/6 40/54/6
f 13/49/1 37/48/1 41/55/1
f 19/52/1 42/56/1 38/53/1
f 42/56/1 19/52/1 18/40/1 34/39/1
f 16/43/1 13/49/1 41/55/1 33/44/1
f 20/51/4 14/50/4 15/42/4 17/41/4
f 43/57/5 23/58/5 21/59/5 44/60/5
f 44/60/2 21/59/2 22/61/2 45/62/2
f 22/61/3 24/63/3 46/64/3 45/62/3
f 24/63/6 23/58/6 43/57/6 46/64/6
f 37/48/5 39/47/5 27/65/5 26/66/5 30/67/5 29/68/5 35/45/5 33/44/5 41/55/5
f 32/69/3 31/70/3 28/71/3 25/72/3 40/54/3 38/53/3 42/56/3 34/39/3 36/46/3
f 44/60/1 30/67/1 26/66/1 43/57/1
f 46/64/1 43/57/1 26/66/1 28/71/1 31/70/1 30/67/1 44/60/1 45/62/1
f 29/68/4 32/69/4 36/46/4 35/45/4
f 25/72/4 27/65/4 39/47/4 40/54/4
f 49/73/5 2/74/5 5/75/5 48/76/5
f 48/76/2 5/75/2 11/77/2 47/78/2
f 11/77/3 7/79/3 50/80/3 47/78/3
f 7/79/6 2/74/6 49/73/6 50/80/6
f 5/75/1 2/74/1 7/79/1 11/77/1
o 큐브_큐브.004
v -1.380016 2.797166 2.695676
v -1.380016 2.997166 2.695676
v -1.380016 2.797166 1.695676
v -1.380016 2.997166 1.695676
v -1.280016 2.797166 2.695676
v -1.280016 2.997166 2.695676
v -1.280016 2.797166 1.695676
v -1.280016 2.997166 1.695676
vt 0.375000 0.000000
vt 0.625000 0.000000
vt 0.625000 0.250000
vt 0.375000 0.250000
vt 0.625000 0.500000
vt 0.375000 0.500000
vt 0.625000 0.750000
vt 0.375000 0.750000
vt 0.625000 1.000000
vt 0.375000 1.000000
vt 0.125000 0.500000
vt 0.125000 0.750000
vt 0.875000 0.500000
vt 0.875000 0.750000
vn -1.0000 0.0000 0.0000
vn 0.0000 0.0000 -1.0000
vn 1.0000 0.0000 0.0000
vn 0.0000 0.0000 1.0000
vn 0.0000 -1.0000 0.0000
vn 0.0000 1.0000 0.0000
usemtl None
s off
f 51/81/7 52/82/7 54/83/7 53/84/7
f 53/84/8 54/83/8 58/85/8 57/86/8
f 57/86/9 58/85/9 56/87/9 55/88/9
f 55/88/10 56/87/10 52/89/10 51/90/10
f 53/91/11 57/86/11 55/88/11 51/92/11
f 58/85/12 54/93/12 52/94/12 56/87/12
o 큐브.001_큐브.005
v 1.237342 2.797166 2.695676
v 1.237342 2.997166 2.695676
v 1.237342 2.797166 1.695676
v 1.237342 2.997166 1.695676
v 1.337342 2.797166 2.695676
v 1.337342 2.997166 2.695676
v 1.337342 2.797166 1.695676
v 1.337342 2.997166 1.695676
vt 0.375000 0.000000
vt 0.625000 0.000000
vt 0.625000 0.250000
vt 0.375000 0.250000
vt 0.625000 0.500000
vt 0.375000 0.500000
vt 0.625000 0.750000
vt 0.375000 0.750000
vt 0.625000 1.000000
vt 0.375000 1.000000
vt 0.125000 0.500000
vt 0.125000 0.750000
vt 0.875000 0.500000
vt 0.875000 0.750000
vn -1.0000 0.0000 0.0000
vn 0.0000 0.0000 -1.0000
vn 1.0000 0.0000 0.0000
vn 0.0000 0.0000 1.0000
vn 0.0000 -1.0000 0.0000
vn 0.0000 1.0000 0.0000
usemtl None
s off
f 59/95/13 60/96/13 62/97/13 61/98/13
f 61/98/14 62/97/14 66/99/14 65/100/14
f 65/100/15 66/99/15 64/101/15 63/102/15
f 63/102/16 64/101/16 60/103/16 59/104/16
f 61/105/17 65/100/17 63/102/17 59/106/17
f 66/99/18 62/107/18 60/108/18 64/101/18
o 실린더
v -1.336130 2.923242 2.561368
v 1.263870 2.923242 2.561368
v -1.336130 2.921320 2.541859
v 1.263870 2.921320 2.541859
v -1.336130 2.915630 2.523100
v 1.263870 2.915630 2.523100
v -1.336130 2.906389 2.505811
v 1.263870 2.906389 2.505811
v -1.336130 2.893953 2.490658
v 1.263870 2.893953 2.490658
v -1.336130 2.878799 2.478221
v 1.263870 2.878799 2.478221
v -1.336130 2.861510 2.468980
v 1.263870 2.861510 2.468980
v -1.336130 2.842751 2.463290
v 1.263870 2.842751 2.463290
v -1.336130 2.823242 2.461368
v 1.263870 2.823242 2.461368
v -1.336130 2.803733 2.463290
v 1.263870 2.803733 2.463290
v -1.336130 2.784974 2.468980
v 1.263870 2.784974 2.468980
v -1.336130 2.767685 2.478221
v 1.263870 2.767685 2.478221
v -1.336130 2.752531 2.490658
v 1.263870 2.752531 2.490658
v -1.336130 2.740095 2.505811
v 1.263870 2.740095 2.505811
v -1.336130 2.730854 2.523100
v 1.263870 2.730854 2.523100
v -1.336130 2.725163 2.541859
v 1.263870 2.725163 2.541859
v -1.336130 2.723242 2.561368
v 1.263870 2.723242 2.561368
v -1.336130 2.725163 2.580877
v 1.263870 2.725163 2.580877
v -1.336130 2.730854 2.599637
v 1.263870 2.730854 2.599637
v -1.336130 2.740095 2.616925
v 1.263870 2.740095 2.616925
v -1.336130 2.752531 2.632079
v 1.263870 2.752531 2.632079
v -1.336130 2.767685 2.644515
v 1.263870 2.767685 2.644515
v -1.336130 2.784974 2.653756
v 1.263870 2.784974 2.653756
v -1.336130 2.803733 2.659447
v 1.263870 2.803733 2.659447
v -1.336130 2.823242 2.661368
v 1.263870 2.823242 2.661368
v -1.336130 2.842751 2.659447
v 1.263870 2.842751 2.659447
v -1.336130 2.861510 2.653756
v 1.263870 2.861510 2.653756
v -1.336130 2.878799 2.644515
v 1.263870 2.878799 2.644515
v -1.336130 2.893953 2.632079
v 1.263870 2.893953 2.632079
v -1.336130 2.906389 2.616925
v 1.263870 2.906389 2.616925
v -1.336130 2.915630 2.599637
v 1.263870 2.915630 2.599637
v -1.336130 2.921320 2.580877
v 1.263870 2.921320 2.580877
vt 1.000000 0.500000
vt 1.000000 1.000000
vt 0.968750 1.000000
vt 0.968750 0.500000
vt 0.937500 1.000000
vt 0.937500 0.500000
vt 0.906250 1.000000
vt 0.906250 0.500000
vt 0.875000 1.000000
vt 0.875000 0.500000
vt 0.843750 1.000000
vt 0.843750 0.500000
vt 0.812500 1.000000
vt 0.812500 0.500000
vt 0.781250 1.000000
vt 0.781250 0.500000
vt 0.750000 1.000000
vt 0.750000 0.500000
vt 0.718750 1.000000
vt 0.718750 0.500000
vt 0.687500 1.000000
vt 0.687500 0.500000
vt 0.656250 1.000000
vt 0.656250 0.500000
vt 0.625000 1.000000
vt 0.625000 0.500000
vt 0.593750 1.000000
vt 0.593750 0.500000
vt 0.562500 1.000000
vt 0.562500 0.500000
vt 0.531250 1.000000
vt 0.531250 0.500000
vt 0.500000 1.000000
vt 0.500000 0.500000
vt 0.468750 1.000000
vt 0.468750 0.500000
vt 0.437500 1.000000
vt 0.437500 0.500000
vt 0.406250 1.000000
vt 0.406250 0.500000
vt 0.375000 1.000000
vt 0.375000 0.500000
vt 0.343750 1.000000
vt 0.343750 0.500000
vt 0.312500 1.000000
vt 0.312500 0.500000
vt 0.281250 1.000000
vt 0.281250 0.500000
vt 0.250000 1.000000
vt 0.250000 0.500000
vt 0.218750 1.000000
vt 0.218750 0.500000
vt 0.187500 1.000000
vt 0.187500 0.500000
vt 0.156250 1.000000
vt 0.156250 0.500000
vt 0.125000 1.000000
vt 0.125000 0.500000
vt 0.093750 1.000000
vt 0.093750 0.500000
vt 0.062500 1.000000
vt 0.062500 0.500000
vt 0.296822 0.485388
vt 0.250000 0.490000
vt 0.203178 0.485388
vt 0.158156 0.471731
vt 0.116663 0.449553
vt 0.080294 0.419706
vt 0.050447 0.383337
vt 0.028269 0.341844
vt 0.014612 0.296822
vt 0.010000 0.250000
vt 0.014612 0.203178
vt 0.028269 0.158156
vt 0.050447 0.116663
vt 0.080294 0.080294
vt 0.116663 0.050447
vt 0.158156 0.028269
vt 0.203178 0.014612
vt 0.250000 0.010000
vt 0.296822 0.014612
vt 0.341844 0.028269
vt 0.383337 0.050447
vt 0.419706 0.080294
vt 0.449553 0.116663
vt 0.471731 0.158156
vt 0.485388 0.203178
vt 0.490000 0.250000
vt 0.485388 0.296822
vt 0.471731 0.341844
vt 0.449553 0.383337
vt 0.419706 0.419706
vt 0.383337 0.449553
vt 0.341844 0.471731
vt 0.031250 1.000000
vt 0.031250 0.500000
vt 0.000000 1.000000
vt 0.000000 0.500000
vt 0.750000 0.490000
vt 0.796822 0.485388
vt 0.841844 0.471731
vt 0.883337 0.449553
vt 0.919706 0.419706
vt 0.949553 0.383337
vt 0.971731 0.341844
vt 0.985388 0.296822
vt 0.990000 0.250000
vt 0.985388 0.203178
vt 0.971731 0.158156
vt 0.949553 0.116663
vt 0.919706 0.080294
vt 0.883337 0.050447
vt 0.841844 0.028269
vt 0.796822 0.014612
vt 0.750000 0.010000
vt 0.703178 0.014612
vt 0.658156 0.028269
vt 0.616663 0.050447
vt 0.580294 0.080294
vt 0.550447 0.116663
vt 0.528269 0.158156
vt 0.514612 0.203178
vt 0.510000 0.250000
vt 0.514612 0.296822
vt 0.528269 0.341844
vt 0.550447 0.383337
vt 0.580294 0.419706
vt 0.616663 0.449553
vt 0.658156 0.471731
vt 0.703178 0.485388
vn 0.0000 0.9952 -0.0980
vn 0.0000 0.9569 -0.2903
vn 0.0000 0.8819 -0.4714
vn 0.0000 0.7730 -0.6344
vn 0.0000 0.6344 -0.7730
vn 0.0000 0.4714 -0.8819
vn 0.0000 0.2903 -0.9569
vn 0.0000 0.0980 -0.9952
vn 0.0000 -0.0980 -0.9952
vn 0.0000 -0.2903 -0.9569
vn 0.0000 -0.4714 -0.8819
vn 0.0000 -0.6344 -0.7730
vn -0.0000 -0.7730 -0.6344
vn -0.0000 -0.8819 -0.4714
vn 0.0000 -0.9569 -0.2903
vn -0.0000 -0.9952 -0.0980
vn -0.0000 -0.9952 0.0980
vn 0.0000 -0.9569 0.2903
vn -0.0000 -0.8819 0.4714
vn -0.0000 -0.7730 0.6344
vn 0.0000 -0.6344 0.7730
vn 0.0000 -0.4714 0.8819
vn 0.0000 -0.2903 0.9569
vn 0.0000 -0.0980 0.9952
vn 0.0000 0.0980 0.9952
vn 0.0000 0.2903 0.9569
vn 0.0000 0.4714 0.8819
vn 0.0000 0.6344 0.7730
vn 0.0000 0.7730 0.6344
vn 0.0000 0.8819 0.4714
vn 1.0000 0.0000 0.0000
vn 0.0000 0.9569 0.2903
vn 0.0000 0.9952 0.0980
vn -1.0000 -0.0000 0.0000
usemtl None
s off
f 67/109/19 68/110/19 70/111/19 69/112/19
f 69/112/20 70/111/20 72/113/20 71/114/20
f 71/114/21 72/113/21 74/115/21 73/116/21
f 73/116/22 74/115/22 76/117/22 75/118/22
f 75/118/23 76/117/23 78/119/23 77/120/23
f 77/120/24 78/119/24 80/121/24 79/122/24
f 79/122/25 80/121/25 82/123/25 81/124/25
f 81/124/26 82/123/26 84/125/26 83/126/26
f 83/126/27 84/125/27 86/127/27 85/128/27
f 85/128/28 86/127/28 88/129/28 87/130/28
f 87/130/29 88/129/29 90/131/29 89/132/29
f 89/132/30 90/131/30 92/133/30 91/134/30
f 91/134/31 92/133/31 94/135/31 93/136/31
f 93/136/32 94/135/32 96/137/32 95/138/32
f 95/138/33 96/137/33 98/139/33 97/140/33
f 97/140/34 98/139/34 100/141/34 99/142/34
f 99/142/35 100/141/35 102/143/35 101/144/35
f 101/144/36 102/143/36 104/145/36 103/146/36
f 103/146/37 104/145/37 106/147/37 105/148/37
f 105/148/38 106/147/38 108/149/38 107/150/38
f 107/150/39 108/149/39 110/151/39 109/152/39
f 109/152/40 110/151/40 112/153/40 111/154/40
f 111/154/41 112/153/41 114/155/41 113/156/41
f 113/156/42 114/155/42 116/157/42 115/158/42
f 115/158/43 116/157/43 118/159/43 117/160/43
f 117/160/44 118/159/44 120/161/44 119/162/44
f 119/162/45 120/161/45 122/163/45 121/164/45
f 121/164/46 122/163/46 124/165/46 123/166/46
f 123/166/47 124/165/47 126/167/47 125/168/47
f 125/168/48 126/167/48 128/169/48 127/170/48
f 70/171/49 68/172/49 130/173/49 128/174/49 126/175/49 124/176/49 122/177/49 120/178/49 118/179/49 116/180/49 114/181/49 112/182/49 110/183/49 108/184/49 106/185/49 104/186/49 102/187/49 100/188/49 98/189/49 96/190/49 94/191/49 92/192/49 90/193/49 88/194/49 86/195/49 84/196/49 82/197/49 80/198/49 78/199/49 76/200/49 74/201/49 72/202/49
f 127/170/50 128/169/50 130/203/50 129/204/50
f 129/204/51 130/203/51 68/205/51 67/206/51
f 67/207/52 69/208/52 71/209/52 73/210/52 75/211/52 77/212/52 79/213/52 81/214/52 83/215/52 85/216/52 87/217/52 89/218/52 91/219/52 93/220/52 95/221/52 97/222/52 99/223/52 101/224/52 103/225/52 105/226/52 107/227/52 109/228/52 111/229/52 113/230/52 115/231/52 117/232/52 119/233/52 121/234/52 123/235/52 125/236/52 127/237/52 129/238/52
